:SAMPLES-PER-SECOND 30
:FULLY-SPECIFIED
:DEGREES
637
root  -44.5713 34.1795 11.5698 168.797 84.1973 173.723
RightUpLeg  -4.52253 -11.7181 -6.88656
RightLeg  24.9705 -4.89317 -1.90799
RightFoot  -3.22444 -0.00548335 0.485603
RightToes  -24.5313 -0.108607 -0.212757
Spine  -0.331457 0.690199 3.60489
Spine1  -0.395339 1.91341 7.30386
HEad  -79.0025 -4.51386 14.2144
LeftShoulder1  -1.94126e-019 -3.10601e-018 -2.51263e-017
LeftArm  -51.6373 -26.056 -14.1527
LeftForeArm  172.961 -63.6599 -160.303
LeftHand  -1.21016 -4.1583 14.9283
RightShoulder  -4.96962e-017 0 -2.36833e-017
RightArm  -79.7795 41.5078 6.63229
RightForeArm  -174.449 71.8992 152.82
RightHand  -0.426264 -3.20634 -22.2516
LeftUpLeg  -5.40557 7.91695 6.86556
LeftLeg  25.4503 4.65365 1.8519
LeftFoot  1.27661 0.00636583 0.293766
LeftToes  -39.663 2.40056e-006 -7.68412e-008
638
root  -44.6481 34.161 11.5427 166.824 84.6368 171.753
RightUpLeg  -4.91873 -11.4865 -7.01874
RightLeg  25.3237 -4.63306 -1.84036
RightFoot  -3.27454 -0.00521841 0.487328
RightToes  -24.6431 -0.107981 -0.212043
Spine  -0.261369 0.696058 3.72306
Spine1  -0.204854 1.96318 7.50737
HEad  -79.0643 -3.61979 14.2066
LeftShoulder1  -1.94126e-019 -3.10601e-018 -2.51263e-017
LeftArm  -49.1445 -24.289 -16.7872
LeftForeArm  169.54 -64.6414 -159.104
LeftHand  -1.16604 -3.26329 15.8237
RightShoulder  -4.96962e-017 0 -2.36833e-017
RightArm  -74.9592 39.6315 9.68074
RightForeArm  -175.505 72.0592 152.416
RightHand  -0.454792 -3.09778 -22.6437
LeftUpLeg  -5.51662 8.25243 6.71783
LeftLeg  25.6823 4.80243 1.93354
LeftFoot  1.20269 0.00654711 0.294926
LeftToes  -39.7449 2.40056e-006 -7.68412e-008
639
root  -44.7494 34.1313 11.5377 164.674 85.0688 169.659
RightUpLeg  -5.3816 -11.2516 -7.09424
RightLeg  25.8329 -4.40056 -1.7943
RightFoot  -3.39009 -0.00517617 0.488783
RightToes  -24.6254 -0.107468 -0.211457
Spine  -0.167387 0.633192 3.79893
Spine1  0.0272977 1.8692 7.63361
HEad  -78.2688 -2.80301 14.2901
LeftShoulder1  -1.94126e-019 -3.10601e-018 -2.51263e-017
LeftArm  -46.2801 -22.2272 -20.6365
LeftForeArm  165.273 -66.3876 -156.953
LeftHand  -1.09132 -2.20493 16.8167
RightShoulder  -4.96962e-017 0 -2.36833e-017
RightArm  -68.9128 37.5707 15.1099
RightForeArm  -177.693 72.4035 151.543
RightHand  -0.375304 -3.5925 -23.7425
LeftUpLeg  -5.70416 8.56929 6.62184
LeftLeg  26.072 4.9127 2.01671
LeftFoot  1.09519 0.00652096 0.295724
LeftToes  -39.6155 2.40056e-006 -7.68412e-008
640
root  -44.8696 34.0932 11.5467 162.962 85.4109 168.078
RightUpLeg  -5.82464 -11.1588 -7.13206
RightLeg  26.4215 -4.12583 -1.73297
RightFoot  -3.51733 -0.00522986 0.488675
RightToes  -24.6356 -0.107084 -0.211018
Spine  -0.0907764 0.542976 3.87527
Spine1  0.22838 1.7186 7.76444
HEad  -76.7856 -2.6356 14.857
LeftShoulder1  -1.94126e-019 -3.10601e-018 -2.51263e-017
LeftArm  -43.0512 -20.1858 -26.2518
LeftForeArm  158.534 -69.142 -152.877
LeftHand  -1.01097 -1.55852 17.0025
RightShoulder  -4.96962e-017 0 -2.36833e-017
RightArm  -61.8468 34.552 22.4606
RightForeArm  178.74 73.1998 149.625
RightHand  -0.248891 -4.25773 -24.8044
LeftUpLeg  -5.94389 8.77396 6.58791
LeftLeg  26.6003 5.0206 2.11505
LeftFoot  0.94556 0.00625721 0.29579
LeftToes  -39.4169 2.40056e-006 -7.68412e-008
641
root  -45.0112 34.0522 11.5724 162.198 85.7014 167.523
RightUpLeg  -6.19952 -11.1727 -7.08598
RightLeg  26.9788 -3.83133 -1.65443
RightFoot  -3.63154 -0.00520479 0.485025
RightToes  -24.4291 -0.106844 -0.210746
Spine  0.0835212 0.441038 3.97523
Spine1  0.627614 1.53197 7.93522
HEad  -75.075 -2.66749 15.167
LeftShoulder1  -1.94126e-019 -3.10601e-018 -2.51263e-017
LeftArm  -39.5226 -17.9549 -33.2577
LeftForeArm  148.498 -72.9664 -144.992
LeftHand  -0.918709 -0.606881 17.8475
RightShoulder  -4.96962e-017 0 -2.36833e-017
RightArm  -54.8598 30.3397 30.7136
RightForeArm  173.989 74.9526 145.229
RightHand  -0.168663 -4.64538 -25.3269
LeftUpLeg  -6.20533 8.86019 6.64874
LeftLeg  27.2001 5.18401 2.24775
LeftFoot  0.861304 0.0057257 0.294753
LeftToes  -39.4075 2.40056e-006 -7.68412e-008
642
root  -45.1691 34.015 11.6087 162.749 85.9878 168.362
RightUpLeg  -6.4477 -11.2931 -6.95043
RightLeg  27.3889 -3.50241 -1.54342
RightFoot  -3.64414 -0.0044337 0.468817
RightToes  -24.3498 -0.106763 -0.210658
Spine  0.339156 0.377046 4.09665
Spine1  1.17288 1.40948 8.13725
HEad  -73.0133 -3.35822 15.5385
LeftShoulder1  -1.94126e-019 -3.10601e-018 -2.51263e-017
LeftArm  -36.0697 -15.6487 -41.4528
LeftForeArm  128.738 -77.5937 -126.454
LeftHand  -0.792458 0.46672 18.6854
RightShoulder  -4.96962e-017 0 -2.36833e-017
RightArm  -48.6989 24.8563 39.0217
RightForeArm  162.991 78.1073 133.361
RightHand  -0.172082 -4.6286 -25.2823
LeftUpLeg  -6.44331 8.86653 6.81305
LeftLeg  27.8236 5.32664 2.37842
LeftFoot  0.788511 0.00489626 0.292244
LeftToes  -38.9914 2.40056e-006 -7.68412e-008
643
root  -45.3416 33.9735 11.649 164.695 86.1792 170.571
RightUpLeg  -6.7138 -11.4474 -6.74695
RightLeg  27.7889 -3.22323 -1.44845
RightFoot  -3.59046 -0.00375296 0.452518
RightToes  -24.5615 -0.106856 -0.210775
Spine  0.755103 0.293879 4.23772
Spine1  2.01922 1.24646 8.33471
HEad  -71.3345 -3.91799 15.7067
LeftShoulder1  -1.94126e-019 -3.10601e-018 -2.51263e-017
LeftArm  -34.4784 -13.459 -50.0716
LeftForeArm  82.1362 -79.7475 -82.6057
LeftHand  -0.60147 1.40818 17.4817
RightShoulder  -4.96962e-017 0 -2.36833e-017
RightArm  -44.4568 19.1264 46.7351
RightForeArm  126.477 81.2766 95.7259
RightHand  -0.241742 -4.26761 -24.2625
LeftUpLeg  -6.78088 8.83488 7.03593
LeftLeg  28.4905 5.41315 2.49264
LeftFoot  0.677926 0.00389225 0.285506
LeftToes  -38.7618 2.40056e-006 -7.68412e-008
644
root  -45.5444 33.9152 11.6832 166.41 86.3738 172.484
RightUpLeg  -7.20412 -11.5265 -6.54127
RightLeg  28.4004 -3.01291 -1.39391
RightFoot  -3.6762 -0.00412532 0.450399
RightToes  -24.5137 -0.107139 -0.211114
Spine  1.25957 0.187847 4.34657
Spine1  3.00073 1.00614 8.48171
HEad  -69.8044 -4.31135 15.3967
LeftShoulder1  -1.94126e-019 -3.10601e-018 -2.51263e-017
LeftArm  -33.8734 -11.567 -58.3224
LeftForeArm  36.3964 -73.1693 -36.335
LeftHand  -0.542826 1.61734 16.6321
RightShoulder  -4.96962e-017 0 -2.36833e-017
RightArm  -42.1066 14.1036 53.6468
RightForeArm  69.7035 76.0475 37.5698
RightHand  -0.369142 -3.50315 -22.2297
LeftUpLeg  -7.31426 8.85876 7.20931
LeftLeg  29.3279 5.4469 2.60494
LeftFoot  0.564121 0.00270648 0.273811
LeftToes  -38.6245 2.40056e-006 -7.68412e-008
645
root  -45.7686 33.8559 11.706 166.732 86.662 172.889
RightUpLeg  -7.91359 -11.4483 -6.39417
RightLeg  29.1182 -2.7822 -1.33111
RightFoot  -3.80703 -0.00432818 0.44551
RightToes  -24.4443 -0.107627 -0.211696
Spine  1.74557 0.0199074 4.39145
Spine1  3.90162 0.591783 8.54723
HEad  -68.4345 -4.44098 14.7439
LeftShoulder1  -1.94126e-019 -3.10601e-018 -2.51263e-017
LeftArm  -33.6202 -10.0499 -65.4055
LeftForeArm  20.7587 -58.7162 -16.8939
LeftHand  -0.524455 1.37461 15.1169
RightShoulder  -4.96962e-017 0 -2.36833e-017
RightArm  -41.0764 10.8935 59.118
RightForeArm  48.5846 59.4527 14.4732
RightHand  -0.384715 -3.16371 -19.653
LeftUpLeg  -7.93669 9.12322 7.30043
LeftLeg  30.111 5.3719 2.65966
LeftFoot  0.439953 0.00150219 0.253783
LeftToes  -38.4606 2.40056e-006 -7.68412e-008
646
root  -46.0001 33.8052 11.7167 164.513 87.0503 170.43
RightUpLeg  -8.97455 -11.4351 -6.31388
RightLeg  29.7821 -2.54851 -1.25726
RightFoot  -3.92436 -0.0048104 0.433214
RightToes  -24.4967 -0.108336 -0.212539
Spine  2.11956 -0.240327 4.29955
Spine1  4.52931 -0.0544855 8.44409
HEad  -67.3126 -4.15856 14.1785
LeftShoulder1  -1.94126e-019 -3.10601e-018 -2.51263e-017
LeftArm  -30.807 -8.85494 -69.8849
LeftForeArm  15.5543 -40.2658 -8.48919
LeftHand  -0.361293 1.71325 11.2973
RightShoulder  -4.96962e-017 0 -2.36833e-017
RightArm  -40.5517 10.5562 62.4518
RightForeArm  42.9372 32.7237 4.74148
RightHand  -0.402303 -2.36271 -15.1775
LeftUpLeg  -8.69814 9.85485 7.26803
LeftLeg  30.5834 5.12988 2.59282
LeftFoot  0.376037 -0.000232726 0.232542
LeftToes  -38.8446 2.40056e-006 -7.68412e-008
